<svg width="44" height="44" viewBox="0 0 44 44" fill="none" xmlns="http://www.w3.org/2000/svg">
<g filter="url(#filter0_b_77_316)">
<g filter="url(#filter1_b_77_316)">
<path d="M21.9453 21.3359C23.7011 21.3359 25.2214 20.7061 26.4636 19.4637C27.7058 18.2214 28.3355 16.7015 28.3355 14.9455C28.3355 13.1901 27.7058 11.67 26.4634 10.4273C25.221 9.18527 23.7009 8.55554 21.9453 8.55554C20.1894 8.55554 18.6695 9.18527 17.4273 10.4275C16.1851 11.6698 15.5552 13.1899 15.5552 14.9455C15.5552 16.7015 16.1851 18.2216 17.4275 19.4639C18.6699 20.7059 20.19 21.3359 21.9453 21.3359Z" fill="#DADADA" fill-opacity="0.2"/>
<path d="M26.1054 19.1055L26.1053 19.1055C24.9581 20.2529 23.5667 20.8293 21.9453 20.8293C20.3245 20.8293 18.9332 20.2528 17.7857 19.1056C16.6382 17.9583 16.0618 16.567 16.0618 14.9455C16.0618 13.3244 16.6382 11.933 17.7855 10.7857C18.9328 9.63844 20.3238 9.06214 21.9453 9.06214C23.5664 9.06214 24.9577 9.63841 26.1051 10.7855C27.2526 11.9332 27.8289 13.3246 27.8289 14.9455C27.8289 16.5671 27.2526 17.9582 26.1054 19.1055Z" stroke="url(#paint0_linear_77_316)" stroke-width="1.01319"/>
</g>
<g filter="url(#filter2_b_77_316)">
<path d="M33.0905 28.9639C33.0546 28.444 32.9821 27.8769 32.8754 27.2781C32.7677 26.6748 32.629 26.1044 32.4629 25.5831C32.2914 25.0443 32.0581 24.5122 31.7698 24.0023C31.4705 23.4731 31.1189 23.0123 30.7244 22.633C30.312 22.2363 29.8069 21.9174 29.2229 21.6847C28.6409 21.4533 27.996 21.336 27.3061 21.336C27.0351 21.336 26.7731 21.4478 26.267 21.7789C25.9556 21.9831 25.5913 22.2192 25.1847 22.4804C24.837 22.7031 24.366 22.9117 23.7842 23.1006C23.2166 23.2852 22.6403 23.3789 22.0715 23.3789C21.5026 23.3789 20.9265 23.2852 20.3583 23.1006C19.7771 22.9119 19.3061 22.7033 18.9588 22.4806C18.5561 22.2219 18.1916 21.9858 17.8755 21.7787C17.37 21.4476 17.1078 21.3358 16.8368 21.3358C16.1467 21.3358 15.502 21.4533 14.9202 21.6849C14.3366 21.9172 13.8313 22.2361 13.4184 22.6332C13.0242 23.0127 12.6724 23.4733 12.3736 24.0023C12.0854 24.5122 11.8521 25.0441 11.6804 25.5833C11.5146 26.1046 11.3758 26.6748 11.2681 27.2781C11.1614 27.8761 11.0889 28.4434 11.0531 28.9645C11.0178 29.475 11 30.0049 11 30.54C11 31.9327 11.4404 33.0602 12.309 33.8917C13.1667 34.7122 14.3018 35.1284 15.682 35.1284H28.4621C29.8424 35.1284 30.977 34.7124 31.835 33.8917C32.7037 33.0608 33.1441 31.9331 33.1441 30.5398C33.1439 30.0022 33.1259 29.472 33.0905 28.9639Z" fill="#DADADA" fill-opacity="0.2"/>
<path d="M32.5851 28.9991L32.5851 28.9987C32.5507 28.4998 32.4807 27.9509 32.3767 27.367C32.2724 26.783 32.1387 26.2345 31.9802 25.7369L31.9802 25.7368C31.8196 25.2324 31.6006 24.7323 31.3288 24.2517C31.0509 23.7604 30.7286 23.3398 30.3734 22.9983L30.3733 22.9982C30.0125 22.6512 29.5646 22.3662 29.0355 22.1553L32.5851 28.9991ZM32.5851 28.9991C32.6197 29.4948 32.6373 30.0133 32.6375 30.5398L32.5851 28.9991ZM25.4584 22.9066L25.4579 22.907C25.0609 23.1612 24.5459 23.3859 23.9406 23.5824C23.325 23.7826 22.696 23.8855 22.0715 23.8855C21.4468 23.8855 20.818 23.7826 20.2019 23.5824L25.4584 22.9066ZM25.4584 22.9066C25.866 22.6449 26.2316 22.4079 26.5447 22.2027L25.4584 22.9066ZM18.6854 22.907L18.685 22.9068C18.2813 22.6475 17.9156 22.4106 17.5979 22.2025L17.5978 22.2025C17.0958 21.8735 16.9447 21.8424 16.8368 21.8424C16.2044 21.8424 15.6239 21.95 15.1076 22.1556L15.1075 22.1556C14.5789 22.366 14.1309 22.6509 13.7697 22.9983L18.6854 22.907ZM18.6854 22.907C19.0821 23.1614 19.5972 23.3861 20.2018 23.5824L18.6854 22.907ZM12.8146 24.2515L12.8146 24.2516C12.543 24.7322 12.3239 25.2321 12.1631 25.7369L12.8146 24.2515ZM12.8146 24.2515C13.0919 23.7608 13.4144 23.3403 13.7696 22.9984L12.8146 24.2515ZM11.5585 28.9993L11.5584 28.9994C11.524 29.4977 11.5066 30.0159 11.5066 30.54C11.5066 31.8183 11.9065 32.8051 12.6593 33.5257C13.4075 34.2414 14.4096 34.6218 15.682 34.6218H28.4621C29.7346 34.6218 30.7363 34.2415 31.4848 33.5256L31.4848 33.5256C32.2375 32.8057 32.6375 31.8189 32.6375 30.54L11.5585 28.9993ZM11.5585 28.9993C11.5929 28.4991 11.6628 27.9502 11.7668 27.3671L11.5585 28.9993ZM27.3061 21.8426C27.9383 21.8426 28.5189 21.95 29.0354 22.1553L26.5448 22.2026C27.0474 21.8737 27.1982 21.8426 27.3061 21.8426ZM11.7668 27.3671C11.8711 26.7831 12.0047 26.2348 12.1631 25.737L11.7668 27.3671Z" stroke="url(#paint1_linear_77_316)" stroke-width="1.01319"/>
</g>
</g>
<defs>
<filter id="filter0_b_77_316" x="6.12657" y="3.68211" width="31.8909" height="36.3197" filterUnits="userSpaceOnUse" color-interpolation-filters="sRGB">
<feFlood flood-opacity="0" result="BackgroundImageFix"/>
<feGaussianBlur in="BackgroundImage" stdDeviation="2.43672"/>
<feComposite in2="SourceAlpha" operator="in" result="effect1_backgroundBlur_77_316"/>
<feBlend mode="normal" in="SourceGraphic" in2="effect1_backgroundBlur_77_316" result="shape"/>
</filter>
<filter id="filter1_b_77_316" x="10.6817" y="3.68211" width="22.5271" height="22.5271" filterUnits="userSpaceOnUse" color-interpolation-filters="sRGB">
<feFlood flood-opacity="0" result="BackgroundImageFix"/>
<feGaussianBlur in="BackgroundImage" stdDeviation="2.43672"/>
<feComposite in2="SourceAlpha" operator="in" result="effect1_backgroundBlur_77_316"/>
<feBlend mode="normal" in="SourceGraphic" in2="effect1_backgroundBlur_77_316" result="shape"/>
</filter>
<filter id="filter2_b_77_316" x="6.12657" y="16.4624" width="31.8909" height="23.5395" filterUnits="userSpaceOnUse" color-interpolation-filters="sRGB">
<feFlood flood-opacity="0" result="BackgroundImageFix"/>
<feGaussianBlur in="BackgroundImage" stdDeviation="2.43672"/>
<feComposite in2="SourceAlpha" operator="in" result="effect1_backgroundBlur_77_316"/>
<feBlend mode="normal" in="SourceGraphic" in2="effect1_backgroundBlur_77_316" result="shape"/>
</filter>
<linearGradient id="paint0_linear_77_316" x1="17.5896" y1="10.0445" x2="25.7421" y2="20.1415" gradientUnits="userSpaceOnUse">
<stop stop-color="white" stop-opacity="0.25"/>
<stop offset="1" stop-color="white" stop-opacity="0"/>
</linearGradient>
<linearGradient id="paint1_linear_77_316" x1="14.525" y1="22.9427" x2="21.7502" y2="37.3097" gradientUnits="userSpaceOnUse">
<stop stop-color="white" stop-opacity="0.25"/>
<stop offset="1" stop-color="white" stop-opacity="0"/>
</linearGradient>
</defs>
</svg>
