<svg width="44" height="44" viewBox="0 0 44 44" fill="none" xmlns="http://www.w3.org/2000/svg">
<g filter="url(#filter0_b_90_1991)">
<g filter="url(#filter1_b_90_1991)">
<path d="M21.9453 21.3359C23.7011 21.3359 25.2214 20.7061 26.4636 19.4637C27.7058 18.2214 28.3355 16.7015 28.3355 14.9455C28.3355 13.1901 27.7058 11.67 26.4634 10.4273C25.221 9.18527 23.7009 8.55554 21.9453 8.55554C20.1894 8.55554 18.6695 9.18527 17.4273 10.4275C16.1851 11.6698 15.5552 13.1899 15.5552 14.9455C15.5552 16.7015 16.1851 18.2216 17.4275 19.4639C18.6699 20.7059 20.19 21.3359 21.9453 21.3359V21.3359Z" fill="url(#paint0_linear_90_1991)"/>
<path d="M26.1054 19.1055L26.1053 19.1055C24.9581 20.2529 23.5667 20.8293 21.9453 20.8293C20.3245 20.8293 18.9332 20.2528 17.7857 19.1056C16.6382 17.9583 16.0618 16.567 16.0618 14.9455C16.0618 13.3244 16.6382 11.933 17.7855 10.7857C18.9328 9.63844 20.3238 9.06214 21.9453 9.06214C23.5664 9.06214 24.9577 9.63841 26.1051 10.7855C27.2526 11.9332 27.8289 13.3246 27.8289 14.9455C27.8289 16.5671 27.2526 17.9582 26.1054 19.1055Z" stroke="url(#paint1_linear_90_1991)" stroke-width="1.01319"/>
</g>
<g filter="url(#filter2_b_90_1991)">
<path d="M33.0905 28.9639C33.0546 28.444 32.9821 27.8769 32.8754 27.2781C32.7677 26.6747 32.629 26.1044 32.4629 25.5831C32.2914 25.0443 32.0581 24.5122 31.7698 24.0023C31.4705 23.4731 31.1189 23.0122 30.7245 22.633C30.312 22.2363 29.8069 21.9173 29.2229 21.6847C28.6409 21.4532 27.996 21.336 27.3061 21.336C27.0351 21.336 26.7731 21.4477 26.267 21.7789C25.9556 21.9831 25.5913 22.2192 25.1847 22.4804C24.837 22.703 24.366 22.9117 23.7842 23.1006C23.2166 23.2852 22.6403 23.3788 22.0714 23.3788C21.5026 23.3788 20.9265 23.2852 20.3583 23.1006C19.7771 22.9119 19.3061 22.7032 18.9588 22.4806C18.5561 22.2218 18.1916 21.9857 17.8755 21.7787C17.37 21.4475 17.1078 21.3358 16.8368 21.3358C16.1467 21.3358 15.502 21.4532 14.9202 21.6849C14.3366 21.9171 13.8313 22.2361 13.4184 22.6332C13.0242 23.0126 12.6724 23.4733 12.3736 24.0023C12.0854 24.5122 11.8521 25.0441 11.6804 25.5833C11.5146 26.1046 11.3758 26.6747 11.2681 27.2781C11.1614 27.8761 11.0889 28.4434 11.0531 28.9645C11.0178 29.475 11 30.0048 11 30.54C11 31.9327 11.4404 33.0601 12.309 33.8916C13.1667 34.7121 14.3018 35.1284 15.682 35.1284H28.4621C29.8424 35.1284 30.977 34.7123 31.835 33.8916C32.7037 33.0607 33.1441 31.9331 33.1441 30.5398C33.1439 30.0022 33.1259 29.4719 33.0905 28.9639V28.9639Z" fill="url(#paint2_linear_90_1991)"/>
<path d="M31.9802 25.7368L31.9802 25.7367C31.8196 25.2324 31.6006 24.7323 31.3288 24.2517C31.0509 23.7603 30.7286 23.3397 30.3734 22.9982L30.3733 22.9981C30.0125 22.6511 29.5646 22.3661 29.0354 22.1553C28.5189 21.9499 27.9383 21.8426 27.3061 21.8426C27.1982 21.8426 27.0474 21.8737 26.5445 22.2028L31.9802 25.7368ZM31.9802 25.7368C32.1387 26.2345 32.2724 26.783 32.3767 27.3671C32.4807 27.951 32.5507 28.4998 32.5851 28.9987L33.0905 28.9639M31.9802 25.7368L33.0905 28.9639M25.4584 22.9066L25.4579 22.907C25.0609 23.1612 24.5459 23.3859 23.9406 23.5824C23.325 23.7826 22.696 23.8854 22.0715 23.8854C21.4468 23.8854 20.818 23.7826 20.2019 23.5824L25.4584 22.9066ZM25.4584 22.9066C25.8659 22.6449 26.2315 22.408 26.5444 22.2028L25.4584 22.9066ZM18.6854 22.907L18.685 22.9068C18.2813 22.6475 17.9156 22.4105 17.5979 22.2025L17.5978 22.2024C17.0958 21.8735 16.9447 21.8424 16.8368 21.8424C16.2044 21.8424 15.6239 21.9499 15.1076 22.1555L15.1075 22.1556C14.5789 22.3659 14.1309 22.6509 13.7697 22.9982L18.6854 22.907ZM18.6854 22.907C19.0821 23.1614 19.5972 23.3861 20.2018 23.5824L18.6854 22.907ZM33.0905 28.9639L32.5851 28.9991M33.0905 28.9639L32.5851 28.9991M12.8146 24.2515L12.8146 24.2515C12.543 24.7322 12.3239 25.2321 12.1631 25.7369L12.8146 24.2515ZM12.8146 24.2515C13.0919 23.7607 13.4144 23.3402 13.7696 22.9983L12.8146 24.2515ZM11.5585 28.9992L11.5584 28.9994C11.524 29.4977 11.5066 30.0159 11.5066 30.54C11.5066 31.8183 11.9065 32.805 12.6593 33.5257C13.4075 34.2413 14.4096 34.6218 15.682 34.6218H28.4621C29.7346 34.6218 30.7363 34.2415 31.4848 33.5256L31.4848 33.5255C32.2375 32.8056 32.6375 31.8189 32.6375 30.5399L11.5585 28.9992ZM11.5585 28.9992C11.5929 28.4991 11.6628 27.9501 11.7668 27.3671L11.5585 28.9992ZM32.5851 28.9991C32.6197 29.4948 32.6373 30.0133 32.6375 30.5398L32.5851 28.9991ZM11.7668 27.367C11.8711 26.7831 12.0047 26.2348 12.1631 25.737L11.7668 27.367Z" stroke="url(#paint3_linear_90_1991)" stroke-width="1.01319"/>
</g>
</g>
<defs>
<filter id="filter0_b_90_1991" x="6.12657" y="3.68211" width="31.8909" height="36.3197" filterUnits="userSpaceOnUse" color-interpolation-filters="sRGB">
<feFlood flood-opacity="0" result="BackgroundImageFix"/>
<feGaussianBlur in="BackgroundImage" stdDeviation="2.43672"/>
<feComposite in2="SourceAlpha" operator="in" result="effect1_backgroundBlur_90_1991"/>
<feBlend mode="normal" in="SourceGraphic" in2="effect1_backgroundBlur_90_1991" result="shape"/>
</filter>
<filter id="filter1_b_90_1991" x="10.6817" y="3.68211" width="22.5271" height="22.5272" filterUnits="userSpaceOnUse" color-interpolation-filters="sRGB">
<feFlood flood-opacity="0" result="BackgroundImageFix"/>
<feGaussianBlur in="BackgroundImage" stdDeviation="2.43672"/>
<feComposite in2="SourceAlpha" operator="in" result="effect1_backgroundBlur_90_1991"/>
<feBlend mode="normal" in="SourceGraphic" in2="effect1_backgroundBlur_90_1991" result="shape"/>
</filter>
<filter id="filter2_b_90_1991" x="6.12657" y="16.4624" width="31.8909" height="23.5395" filterUnits="userSpaceOnUse" color-interpolation-filters="sRGB">
<feFlood flood-opacity="0" result="BackgroundImageFix"/>
<feGaussianBlur in="BackgroundImage" stdDeviation="2.43672"/>
<feComposite in2="SourceAlpha" operator="in" result="effect1_backgroundBlur_90_1991"/>
<feBlend mode="normal" in="SourceGraphic" in2="effect1_backgroundBlur_90_1991" result="shape"/>
</filter>
<linearGradient id="paint0_linear_90_1991" x1="22.8862" y1="15.8015" x2="11.6563" y2="21.2618" gradientUnits="userSpaceOnUse">
<stop stop-color="#FF8F71"/>
<stop offset="1" stop-color="#EF2D1A"/>
</linearGradient>
<linearGradient id="paint1_linear_90_1991" x1="17.5896" y1="10.0445" x2="25.7421" y2="20.1415" gradientUnits="userSpaceOnUse">
<stop stop-color="white" stop-opacity="0.25"/>
<stop offset="1" stop-color="white" stop-opacity="0"/>
</linearGradient>
<linearGradient id="paint2_linear_90_1991" x1="23.7023" y1="29.1557" x2="8.75383" y2="40.825" gradientUnits="userSpaceOnUse">
<stop stop-color="#FF8F71"/>
<stop offset="1" stop-color="#EF2D1A"/>
</linearGradient>
<linearGradient id="paint3_linear_90_1991" x1="14.525" y1="22.9426" x2="21.7502" y2="37.3097" gradientUnits="userSpaceOnUse">
<stop stop-color="white" stop-opacity="0.25"/>
<stop offset="1" stop-color="white" stop-opacity="0"/>
</linearGradient>
</defs>
</svg>
