<svg width="15" height="13" viewBox="0 0 15 13" fill="none" xmlns="http://www.w3.org/2000/svg">
<g filter="url(#filter0_i_2_11)">
<path d="M12.9993 0.752843C11.0842 -0.552899 8.71938 0.0564471 7.44266 1.5508C6.16593 0.0564471 3.80109 -0.560153 1.886 0.752843C0.870423 1.44924 0.23206 2.62441 0.188535 3.86486C0.0869775 6.67946 2.5824 8.93549 6.39081 12.3957L6.46335 12.461C7.01466 12.9615 7.8634 12.9615 8.41471 12.4537L8.4945 12.3812C12.3029 8.92824 14.7911 6.67221 14.6968 3.85761C14.6533 2.62441 14.0149 1.44924 12.9993 0.752843ZM7.5152 11.3148L7.44266 11.3874L7.37012 11.3148C3.91715 8.18832 1.63936 6.12089 1.63936 4.02445C1.63936 2.57363 2.72748 1.48551 4.1783 1.48551C5.29544 1.48551 6.38355 2.20367 6.76802 3.19748H8.12454C8.50176 2.20367 9.58988 1.48551 10.707 1.48551C12.1578 1.48551 13.246 2.57363 13.246 4.02445C13.246 6.12089 10.9682 8.18832 7.5152 11.3148Z" fill="#202020"/>
</g>
<defs>
<filter id="filter0_i_2_11" x="0.185547" y="0.0342102" width="14.5138" height="12.8013" filterUnits="userSpaceOnUse" color-interpolation-filters="sRGB">
<feFlood flood-opacity="0" result="BackgroundImageFix"/>
<feBlend mode="normal" in="SourceGraphic" in2="BackgroundImageFix" result="shape"/>
<feColorMatrix in="SourceAlpha" type="matrix" values="0 0 0 0 0 0 0 0 0 0 0 0 0 0 0 0 0 0 127 0" result="hardAlpha"/>
<feOffset dx="0.5" dy="0.5"/>
<feComposite in2="hardAlpha" operator="arithmetic" k2="-1" k3="1"/>
<feColorMatrix type="matrix" values="0 0 0 0 1 0 0 0 0 1 0 0 0 0 1 0 0 0 0.25 0"/>
<feBlend mode="normal" in2="shape" result="effect1_innerShadow_2_11"/>
</filter>
</defs>
</svg>
